<?xml version="1.0" standalone="no"?>
<!DOCTYPE svg PUBLIC "-//W3C//DTD SVG 20010904//EN"
 "http://www.w3.org/TR/2001/REC-SVG-20010904/DTD/svg10.dtd">
<svg version="1.0" xmlns="http://www.w3.org/2000/svg"
 width="499.000000pt" height="499.000000pt" viewBox="0 0 499.000000 499.000000"
 preserveAspectRatio="xMidYMid meet">

<g transform="translate(0.000000,499.000000) scale(0.100000,-0.100000)"
fill="#000000" stroke="none">
<path d="M2430 4029 c-110 -33 -168 -141 -140 -258 l12 -49 59 41 c75 52 87
44 14 -9 -30 -21 -66 -55 -80 -74 l-25 -35 23 -3 c31 -4 80 15 72 28 -8 13 -2
13 27 -1 20 -9 33 -4 91 34 37 25 81 50 97 57 25 10 30 18 30 47 0 44 -16 73
-40 73 -20 0 -37 37 -23 51 5 5 24 11 43 14 34 5 30 1 -19 -17 -21 -8 -23 -11
-10 -23 12 -12 23 -11 81 6 67 21 77 34 39 54 -10 6 -37 23 -59 38 -46 33
-132 44 -192 26z m72 -229 c-41 -21 -97 -58 -124 -81 -34 -28 -47 -35 -39 -21
15 28 104 96 161 121 77 35 78 22 2 -19z"/>
<path d="M2666 3901 c-3 -5 5 -12 19 -15 14 -4 25 -11 25 -17 0 -6 5 -7 10 -4
16 10 -8 45 -30 45 -10 0 -21 -4 -24 -9z"/>
<path d="M2610 3875 c0 -8 5 -15 10 -15 6 0 10 -16 10 -35 0 -35 12 -43 37
-27 20 12 -14 92 -39 92 -10 0 -18 -7 -18 -15z"/>
<path d="M2678 3869 c6 -7 12 -23 12 -35 0 -13 4 -25 8 -28 12 -7 52 5 52 16
0 5 -4 7 -9 3 -5 -3 -12 3 -14 12 -3 13 -5 11 -7 -7 -1 -23 -3 -22 -14 9 -7
19 -19 37 -27 39 -11 4 -12 2 -1 -9z"/>
<path d="M2945 3796 c-17 -7 -46 -28 -65 -47 -19 -19 -31 -26 -27 -17 13 34
-24 6 -63 -50 -43 -60 -48 -61 -25 -5 14 32 14 38 0 53 -8 9 -15 24 -15 33 0
23 -19 31 -43 18 -12 -6 -35 -15 -52 -21 -22 -9 -26 -13 -15 -20 8 -5 17 -7
21 -4 4 2 19 0 33 -6 20 -7 28 -6 36 8 9 14 10 13 8 -8 -2 -14 -8 -24 -13 -23
-6 1 -10 -14 -11 -32 -1 -41 -33 -127 -45 -120 -5 4 -6 -2 -2 -11 4 -10 2 -15
-3 -11 -6 3 -15 -3 -22 -14 -23 -36 4 -19 86 56 76 69 164 126 194 125 7 -1
-12 -14 -42 -30 -54 -29 -139 -96 -110 -87 58 17 57 14 -3 -20 -113 -64 -216
-164 -117 -113 49 25 90 41 90 35 0 -2 -28 -18 -61 -36 -81 -43 -152 -108
-199 -182 l-38 -61 44 -28 c24 -15 44 -34 44 -42 0 -11 -7 -8 -26 9 -30 28
-81 48 -89 35 -3 -6 -37 -28 -75 -50 -52 -30 -76 -52 -96 -85 -48 -83 -28
-209 42 -264 32 -25 51 -17 29 12 -28 39 -64 121 -69 162 l-6 40 14 -41 c18
-54 43 -101 73 -142 20 -27 30 -32 49 -28 19 5 22 3 17 -10 -4 -12 -14 -14
-34 -10 -16 3 -29 1 -29 -4 0 -18 -28 -10 -58 15 -55 46 -93 23 -46 -27 16
-17 56 -43 89 -59 33 -16 51 -29 40 -29 -31 1 -97 34 -138 69 -35 31 -57 34
-57 7 0 -22 53 -64 120 -95 36 -17 56 -30 45 -31 -53 -1 -172 77 -187 122 -6
18 -66 -10 -73 -33 -9 -26 3 -42 27 -36 15 4 19 1 16 -16 -2 -17 -9 -21 -30
-19 -25 2 -37 -12 -149 -180 -67 -101 -179 -264 -248 -363 -200 -287 -211
-305 -211 -334 0 -53 67 -111 128 -111 49 0 63 19 418 567 103 158 188 293
191 299 2 7 -17 33 -44 59 l-48 47 46 -32 c47 -32 109 -47 152 -36 42 10 114
74 137 121 18 38 20 50 11 77 -15 44 -4 49 14 6 15 -36 11 -70 -14 -117 -11
-20 -10 -21 42 -21 117 0 217 55 217 120 0 62 -35 103 -105 122 -24 6 -21 7
15 3 36 -3 52 -11 77 -39 18 -19 35 -31 38 -27 9 16 -27 114 -51 136 -28 26
-71 37 -116 29 -25 -4 -29 -3 -18 5 19 14 96 14 121 0 19 -10 20 -9 8 13 -6
13 -28 45 -47 72 -49 67 -10 46 47 -25 l41 -52 0 35 c0 38 27 149 39 161 5 5
5 -11 0 -35 -12 -62 -9 -206 4 -252 l12 -40 19 30 c11 16 46 56 77 90 67 69
89 114 89 181 1 40 3 45 11 29 14 -23 5 -95 -16 -136 -8 -16 -36 -53 -61 -81
-55 -62 -90 -116 -98 -150 l-6 -26 113 38 c118 39 188 56 172 40 -6 -5 -35
-16 -65 -26 -89 -29 -221 -97 -256 -132 -41 -40 -53 -92 -32 -136 l15 -32 16
30 c18 36 95 125 108 125 5 0 -7 -21 -27 -47 -63 -82 -94 -165 -108 -288 l-5
-50 29 55 c30 58 95 140 111 140 5 0 -6 -20 -25 -44 -49 -64 -74 -122 -87
-203 -10 -60 -9 -86 5 -163 9 -50 25 -113 36 -141 29 -72 24 -83 -9 -20 l-28
54 5 -83 5 -84 -34 32 c-37 35 -69 48 -95 38 -44 -17 17 -189 111 -316 41 -55
49 -62 55 -45 5 14 2 22 -9 26 -13 5 -13 7 4 11 17 5 16 6 -5 7 -25 2 -25 2 5
16 l30 13 -41 1 c-39 1 -43 4 -57 39 -18 45 -32 118 -17 87 5 -11 19 -41 29
-67 12 -28 27 -48 36 -48 19 0 19 7 0 59 -8 22 -11 41 -7 41 5 0 16 -23 26
-50 10 -28 20 -49 22 -47 2 2 12 42 22 88 l18 84 -71 0 c-54 0 -76 4 -97 20
-41 30 -42 47 -1 19 39 -26 104 -32 147 -13 28 13 36 43 36 138 0 152 37 273
106 349 39 44 44 55 44 97 l0 48 -58 -55 c-32 -30 -73 -63 -91 -73 -28 -14
-21 -4 35 51 60 60 78 88 141 214 57 115 82 155 124 195 55 53 56 47 0 -25
-37 -48 -91 -159 -91 -186 0 -12 6 -9 22 11 22 28 95 85 109 85 5 0 -15 -21
-42 -47 -61 -57 -99 -127 -106 -198 l-5 -52 50 10 c61 13 153 -9 215 -49 62
-41 91 -129 67 -204 -6 -19 -8 -11 -9 33 -1 33 -8 74 -17 93 -42 88 -221 127
-319 70 -86 -51 -120 -139 -140 -360 -13 -145 -36 -311 -51 -359 -3 -9 -9 -67
-14 -128 -8 -107 -10 -115 -60 -214 -32 -63 -50 -110 -46 -120 4 -12 -9 -30
-43 -61 -54 -49 -67 -77 -43 -96 17 -15 182 -16 322 -1 81 8 85 9 85 33 0 20
-6 25 -35 31 -39 8 -56 28 -70 80 -19 69 -69 81 -142 35 l-43 -27 39 36 c28
25 49 35 71 35 40 0 81 -31 90 -67 11 -45 33 -73 59 -73 34 0 43 16 49 95 l6
70 -20 -63 c-11 -35 -22 -62 -24 -60 -2 1 5 44 15 93 28 135 113 646 114 680
1 26 -3 30 -26 33 -16 2 -28 0 -28 -5 -1 -35 -84 -502 -104 -579 -27 -106 -54
-155 -31 -58 7 32 23 120 34 194 12 74 33 203 46 287 14 83 25 156 25 162 0 6
-10 11 -23 11 -21 0 -23 -7 -50 -193 -28 -195 -68 -382 -86 -400 -6 -6 -8 -3
-6 9 44 204 92 571 77 586 -7 7 -14 9 -17 6 -3 -3 -21 -104 -40 -225 -36 -235
-65 -374 -89 -438 -17 -46 -20 -37 -6 20 5 22 28 162 50 310 22 149 43 287 46
309 l7 38 96 -4 c53 -3 129 -13 169 -22 71 -17 73 -19 68 -44 -3 -15 -8 -47
-11 -72 -5 -38 -2 -32 23 36 16 45 42 104 59 131 42 68 68 130 94 221 29 105
24 238 -14 332 -15 35 -24 66 -22 68 7 7 64 -119 71 -155 3 -18 10 -33 14 -33
4 0 15 38 25 84 33 157 4 268 -92 356 -30 28 -52 50 -48 50 15 0 95 -62 120
-92 l27 -33 -5 67 c-5 80 -30 121 -84 139 -105 34 -245 -40 -335 -179 -19 -30
-27 -38 -23 -22 20 75 130 188 218 225 46 19 127 19 174 0 19 -8 37 -15 40
-15 2 0 -33 73 -79 163 -92 182 -152 255 -246 298 -28 13 -52 27 -52 31 0 12
99 -30 146 -63 24 -16 44 -27 44 -24 0 3 -11 27 -24 53 -28 55 -58 85 -106
106 -20 9 -27 15 -17 16 10 0 36 -9 57 -20 l40 -20 0 23 c0 56 -62 88 -168 88
-38 0 -51 3 -41 10 8 5 38 9 67 9 28 0 52 3 52 8 -1 19 -79 119 -109 139 -38
26 -90 29 -136 9z m171 -215 c-8 -13 -88 -29 -181 -36 -44 -3 -91 -9 -105 -12
-19 -4 -22 -3 -14 6 6 7 71 19 144 27 74 8 136 17 139 19 8 9 22 5 17 -4z
m-36 -72 c-8 -5 -43 -26 -77 -47 -34 -20 -109 -79 -166 -130 -115 -102 -183
-152 -243 -176 l-39 -16 33 26 c27 22 32 32 32 69 0 52 -19 75 -63 75 -24 0
-28 3 -17 10 23 15 48 12 69 -9 20 -20 20 -20 30 12 12 35 67 107 82 107 5 0
-7 -20 -26 -45 -19 -25 -36 -60 -39 -78 -16 -104 -16 -108 3 -98 9 5 55 45
102 88 l85 79 -61 -3 -60 -3 68 15 c47 9 92 28 140 59 72 44 133 74 152 75 6
0 3 -5 -5 -10z m37 -144 c83 -72 151 -187 177 -300 11 -44 -7 -19 -34 50 -32
82 -97 180 -161 243 -65 64 -53 69 18 7z m56 6 c70 -48 153 -143 191 -219 48
-96 46 -126 -3 -35 -51 97 -141 203 -226 267 -36 27 -5 17 38 -13z m-73 -129
c34 -90 23 -179 -35 -262 -26 -37 -205 -168 -205 -149 0 5 33 33 73 63 39 29
82 64 94 77 70 76 84 214 33 315 -36 72 -37 78 -5 39 13 -16 34 -54 45 -83z
m-560 -152 c11 -20 -3 -57 -49 -124 -18 -26 -18 -31 -5 -52 21 -32 3 -64 -35
-64 -23 0 -35 9 -59 45 -27 41 -59 132 -49 141 2 3 12 -17 22 -43 26 -67 64
-123 86 -123 31 0 31 17 -1 73 -16 29 -30 62 -30 73 0 12 7 4 18 -20 l17 -38
38 55 c22 31 36 61 32 67 -10 17 -37 12 -63 -12 l-25 -23 19 33 c22 38 66 45
84 12z m-188 -205 c35 -55 52 -68 80 -59 20 6 21 5 9 -10 -23 -28 -49 -18 -86
32 -35 47 -65 126 -64 166 0 12 8 -4 18 -34 9 -30 29 -73 43 -95z m269 -66
c51 -25 46 -35 -7 -13 -28 12 -56 15 -99 11 -57 -5 -58 -5 -30 8 43 20 90 18
136 -6z m404 -61 c-42 -39 -92 -98 -112 -130 -20 -32 -38 -56 -40 -54 -9 8 47
113 82 153 33 39 118 103 137 103 4 0 -26 -32 -67 -72z m-510 20 c36 -16 59
-62 45 -88 -11 -21 -41 -40 -62 -40 -7 1 -1 8 15 16 19 10 27 22 27 42 0 34
-8 45 -45 65 -35 19 -19 23 20 5z m-334 -140 c19 -14 59 -35 89 -46 39 -15 48
-21 30 -21 -33 -1 -124 42 -155 73 -15 15 -25 36 -25 53 l1 28 13 -31 c8 -17
29 -43 47 -56z m938 -426 c-16 -46 -29 -87 -29 -92 0 -4 11 -10 25 -12 22 -5
26 0 41 46 21 64 55 139 59 134 2 -2 -9 -44 -24 -93 -16 -50 -26 -93 -22 -96
3 -4 20 -10 37 -13 29 -6 31 -5 43 34 17 57 51 134 56 128 3 -2 -6 -38 -20
-78 -30 -89 -31 -106 -5 -113 16 -4 22 5 40 58 18 53 59 130 46 85 -3 -8 -14
-46 -26 -84 -14 -49 -17 -72 -10 -81 6 -8 -29 0 -82 17 -51 16 -136 36 -188
43 -52 7 -87 13 -78 14 9 1 20 11 24 23 13 41 64 151 69 147 2 -3 -7 -35 -20
-72 -29 -80 -31 -100 -9 -95 9 2 26 29 39 64 26 69 55 128 60 122 2 -2 -9 -41
-26 -86z m42 -176 c58 -13 149 -49 149 -60 0 -2 -35 7 -77 21 -50 16 -113 27
-175 30 -54 3 -98 10 -98 14 0 14 128 10 201 -5z m-30 -55 c67 -11 178 -43
164 -47 -5 -2 -86 10 -180 25 -151 26 -163 29 -105 30 36 0 90 -3 121 -8z
m-162 -707 c10 -9 -55 -3 -69 6 -10 6 -2 7 25 3 22 -3 42 -7 44 -9z"/>
<path d="M2540 3700 c-35 -21 -68 -36 -74 -33 -5 4 -6 1 -2 -6 5 -7 8 -28 8
-47 0 -19 2 -34 5 -34 2 0 30 17 61 39 31 21 82 51 112 67 l55 28 -35 7 c-19
3 -42 9 -50 12 -8 3 -44 -12 -80 -33z"/>
<path d="M2629 3637 c-96 -63 -123 -86 -124 -107 -1 -15 2 -17 17 -9 20 11 42
3 33 -11 -3 -5 0 -12 6 -16 8 -4 9 -3 5 4 -4 7 -3 12 3 12 5 0 13 -4 16 -10 3
-5 9 -10 13 -10 10 0 45 58 62 100 8 19 20 41 27 48 11 12 18 42 10 42 -2 0
-32 -19 -68 -43z"/>
<path d="M2427 3643 c-2 -4 4 -21 14 -38 l19 -30 -3 34 c-2 32 -20 52 -30 34z"/>
<path d="M2369 3594 c-13 -14 -17 -23 -9 -19 13 5 46 45 37 45 -2 0 -14 -11
-28 -26z"/>
<path d="M2484 3558 l-19 -23 23 19 c21 18 27 26 19 26 -2 0 -12 -10 -23 -22z"/>
<path d="M2370 3561 c0 -5 7 -11 15 -15 8 -3 15 -1 15 3 0 5 -7 11 -15 15 -8
3 -15 1 -15 -3z"/>
<path d="M2424 3509 c0 -13 3 -15 13 -7 7 6 13 12 13 13 0 2 -6 5 -13 8 -7 3
-13 -3 -13 -14z"/>
<path d="M2465 3500 c-16 -7 -17 -9 -3 -9 9 -1 20 4 23 9 7 11 7 11 -20 0z"/>
<path d="M2502 3461 c7 -11 15 -18 19 -15 4 2 10 0 14 -6 3 -5 14 -10 23 -10
10 0 3 7 -15 16 -18 9 -33 20 -33 25 0 5 -5 9 -10 9 -6 0 -5 -8 2 -19z"/>
<path d="M1470 2060 c-45 -45 -11 -120 53 -120 20 0 41 8 50 18 23 25 22 85
-1 105 -25 23 -78 21 -102 -3z"/>
<path d="M3186 1733 c-40 -231 -85 -470 -93 -490 -6 -17 -5 -17 14 0 12 10 23
15 26 10 7 -12 25 -108 32 -176 8 -68 33 -102 68 -91 74 23 112 84 111 174 -1
36 -6 78 -13 93 -10 27 -12 27 -33 13 -12 -9 -31 -16 -41 -16 -19 0 -97 37
-97 45 0 3 13 -1 30 -10 45 -23 85 -19 109 11 12 15 21 36 21 47 0 24 -36 84
-58 96 -9 5 -14 12 -11 16 4 3 24 -10 44 -30 21 -19 41 -33 44 -30 3 3 7 34 9
68 3 52 1 66 -18 90 -36 45 -59 33 -94 -45 l-29 -68 42 -50 c51 -60 46 -64
-13 -10 l-43 40 -33 -61 c-17 -33 -33 -59 -35 -57 -2 2 16 53 41 113 24 61 42
116 39 123 -2 7 4 49 15 95 20 87 44 237 38 242 -2 1 -12 5 -24 9 -20 6 -22
-2 -48 -151z"/>
</g>
</svg>
